<?xml version="1.0" encoding="UTF-8" standalone="no"?><svg xmlns="http://www.w3.org/2000/svg" viewBox="0 0 121 30"><defs><radialGradient id="prefix__b" gradientUnits="userSpaceOnUse" cx="0" cy="0" fx="0" fy="0" r="1" gradientTransform="matrix(10.75872 21.91691 -15.63507 7.69457 18.651 17.308)"><stop offset="0" stop-color="#395f5f"/><stop offset="1" stop-color="#278888" stop-opacity="0"/></radialGradient><linearGradient id="prefix__a" gradientUnits="userSpaceOnUse" x1=".5" y1="0" x2=".5" y2="1" gradientTransform="matrix(29.96094 0 0 30 0 .082)"><stop offset="0" stop-color="#399"/><stop offset="1" stop-color="#2d8396"/></linearGradient><clipPath id="prefix__c"><path d="M35.723 6.348H121v19.035H35.723zm0 0"/></clipPath></defs><path d="M29.96.082H0v30h29.96zm0 0" fill="url(#prefix__a)"/><path d="M17.734 20.98V4.457h1.832l8.254 25.7H15.902l-6.418-5.509zm0 0" fill="url(#prefix__b)"/><g clip-path="url(#prefix__c)"><path d="M44.027 16.184a9.923 9.923 0 01-.156 1.8 4.05 4.05 0 01-.61 1.547c-.324.469-.769.844-1.284 1.082-.555.27-1.286.407-2.184.407a4.545 4.545 0 01-2.664-.758c-.723-.504-1.191-1.293-1.406-2.371l1.32-.325a1.988 1.988 0 011.797.488c.234.22.547.344.87.34.286.02.567-.074.786-.253a1.48 1.48 0 00.414-.637c.09-.266.145-.543.16-.824l.028-.825V7.258h1.355c.418 0 .817.168 1.11.465.292.297.46.699.46 1.117l.008 7.344zm10.059 4.492h-1.723a.493.493 0 01-.488-.496v-.754h-.04c-.108.191-.233.367-.382.531-.168.184-.36.344-.574.473a3.054 3.054 0 01-.766.34c-.3.093-.617.136-.937.132a3.878 3.878 0 01-1.73-.332 2.467 2.467 0 01-1.032-.918 3.572 3.572 0 01-.488-1.386 11.542 11.542 0 01-.125-1.723v-4.582a.503.503 0 01.492-.5h1.832a.512.512 0 01.348.148c.09.094.14.22.14.352v4.016l.032.824c.015.27.07.535.167.785.09.258.262.48.493.629.23.148.504.215.773.187.305.016.61-.05.879-.195.219-.125.398-.309.516-.531.125-.23.203-.485.234-.746.04-.29.059-.582.059-.871V11.96a.493.493 0 01.492-.496h1.828a.491.491 0 01.492.496v8.219a.449.449 0 01-.039.187.455.455 0 01-.266.27.449.449 0 01-.187.039zm12.805-.91l-.395.523a1.402 1.402 0 01-2.176.074l-.78-.89h-.04a3.189 3.189 0 01-.441.504 3.395 3.395 0 01-.637.46 3.962 3.962 0 01-.805.344 3.268 3.268 0 01-.91.133 4.696 4.696 0 01-1.836-.352 4.21 4.21 0 01-1.418-.984 4.469 4.469 0 01-.906-1.508 5.504 5.504 0 01-.32-1.914 5.915 5.915 0 01.289-1.863c.183-.563.46-1.094.828-1.563.351-.449.793-.824 1.3-1.09a3.668 3.668 0 011.747-.406 4.754 4.754 0 011.636.274c.504.18.938.508 1.25.937h.04V7.168c0-.219.081-.426.234-.582a.813.813 0 01.574-.238h1.246a.812.812 0 01.809.758l.879 12.097a.809.809 0 01-.168.563zm-3.352-3.696a2.39 2.39 0 00-.594-1.687c-.379-.43-.945-.645-1.656-.645-.715 0-1.266.215-1.66.645a2.697 2.697 0 00-.59 1.687c0 .614.207 1.211.59 1.688.394.43.95.644 1.66.644.711 0 1.266-.215 1.656-.644a2.39 2.39 0 00.594-1.688zm14.398 3.832c0 1.743-.468 3.035-1.304 3.973-1.98 2.219-5.422 1.445-6.363 1.078-1.457-.57-3.461-1.957-3.653-2.922-.062-.332.13-.726.383-1.074a1.808 1.808 0 011.41-.691c1.824.105 1.34 2.457 4.207 2.457.895 0 1.5-.211 1.906-.633.41-.438.63-1.024.606-1.621v-.89h-.035c-.305.425-.723.75-1.211.937-.434.175-.89.265-1.36.277a4.696 4.696 0 01-1.835-.352 4.114 4.114 0 01-1.415-.988 4.364 4.364 0 01-.91-1.504 5.54 5.54 0 01-.32-1.918c0-.605.098-1.207.293-1.781.18-.555.457-1.078.824-1.535a4.102 4.102 0 011.3-1.07 3.668 3.668 0 011.747-.407 4.181 4.181 0 011.984.473c.246.125.473.281.676.465.168.148.32.316.45.5h.038v-.93c0-.074.028-.144.082-.2a.265.265 0 01.2-.081 2.26 2.26 0 011.629.684c.214.214.386.472.5.757.117.281.175.586.175.89zM70.86 16.02a2.222 2.222 0 00.645 1.582c.207.207.45.378.715.5.277.132.582.199.89.195.305 0 .606-.067.88-.195.269-.122.515-.29.722-.5.207-.207.371-.454.48-.727a2.248 2.248 0 00-.48-2.441 2.443 2.443 0 00-.723-.5 2.115 2.115 0 00-1.77 0 2.459 2.459 0 00-.714.5 2.238 2.238 0 00-.477.722 2.15 2.15 0 00-.175.856l.007.004zm17.059 2.687a.584.584 0 01.195.668.617.617 0 01-.136.207c-.368.352-.793.64-1.254.848a5.057 5.057 0 01-2.137.472 5.693 5.693 0 01-1.98-.34 4.68 4.68 0 01-1.61-.968 4.511 4.511 0 01-1.078-1.524 5.205 5.205 0 010-3.98 4.565 4.565 0 011.078-1.527 4.724 4.724 0 011.61-.977 5.693 5.693 0 011.98-.34 4.38 4.38 0 011.77.34c.519.219.98.55 1.351.976.383.45.672.965.852 1.528.207.64.308 1.312.3 1.988v.067a.832.832 0 01-.238.582.81.81 0 01-.578.242h-5.707c.094.5.352.957.734 1.289.387.328.883.5 1.39.484.411.012.817-.094 1.169-.312.11-.07.21-.149.312-.23a.97.97 0 011.215-.063zm-1.871-3.676a1.67 1.67 0 00-.106-.664 1.602 1.602 0 00-.363-.566 1.624 1.624 0 00-.574-.395 1.696 1.696 0 00-.684-.12 2.129 2.129 0 00-.824.152c-.223.093-.43.222-.61.386-.16.156-.292.344-.382.551a1.82 1.82 0 00-.16.652zm34.012 3.676a.556.556 0 01.226.422.525.525 0 01-.035.246.554.554 0 01-.133.207 4.43 4.43 0 01-1.258.848 5.044 5.044 0 01-2.136.472 5.687 5.687 0 01-1.977-.34 4.577 4.577 0 01-2.691-2.492 5.241 5.241 0 010-3.98 4.632 4.632 0 011.082-1.527 4.724 4.724 0 011.61-.977 5.687 5.687 0 011.976-.34c.609-.012 1.21.106 1.773.34.52.219.98.55 1.352.976.382.45.672.965.851 1.528.207.64.309 1.312.301 1.988v.067a.832.832 0 01-.238.582.81.81 0 01-.578.242h-5.707c.09.5.351.953.734 1.289.387.328.883.5 1.39.484.41.012.817-.094 1.169-.312.109-.07.21-.149.312-.23a.97.97 0 011.215-.063zm-1.871-3.676a1.67 1.67 0 00-.106-.664 1.658 1.658 0 00-.363-.566 1.624 1.624 0 00-.574-.395 1.696 1.696 0 00-.684-.12 2.129 2.129 0 00-.824.152c-.223.093-.43.222-.61.386a1.685 1.685 0 00-.382.551 1.82 1.82 0 00-.16.652zM90.62 19.047a1.79 1.79 0 01.496-1.242c.16-.16.348-.285.555-.371.43-.172.91-.172 1.34 0 .207.086.394.21.55.37.16.16.286.352.368.56.175.437.175.925 0 1.366-.082.207-.2.399-.356.56a1.6 1.6 0 01-.554.366c-.43.176-.91.176-1.34 0a1.6 1.6 0 01-.555-.367 1.703 1.703 0 01-.363-.559 1.876 1.876 0 01-.14-.683zm5.57-7.582H97.2a1.215 1.215 0 011.137.77c.062.152.094.312.094.476h.039c.101-.195.23-.371.383-.531.168-.184.363-.344.574-.473.238-.148.496-.262.765-.344.305-.09.621-.133.938-.129a3.504 3.504 0 011.695.395c.504.277.899.719 1.117 1.25a3.007 3.007 0 011.184-1.266 3.44 3.44 0 011.703-.386 3.398 3.398 0 011.547.308c.402.195.742.488.996.856.254.382.43.816.524 1.27.109.515.16 1.038.16 1.562v4.976c0 .121-.051.242-.137.328a.462.462 0 01-.324.137h-1.89a.455.455 0 01-.427-.289.455.455 0 01-.035-.176v-4.887a2.204 2.204 0 00-.273-1.109c-.18-.308-.5-.465-.957-.465a1.877 1.877 0 00-.813.16c-.21.102-.39.258-.527.45-.137.199-.23.425-.281.664a3.596 3.596 0 00-.082.793v4.39a.479.479 0 01-.477.48h-1.86a.495.495 0 01-.183-.034.412.412 0 01-.152-.106.426.426 0 01-.106-.156.495.495 0 01-.035-.184v-4.39l-.02-.606a2.384 2.384 0 00-.132-.68c-.07-.214-.2-.402-.364-.55a1.08 1.08 0 00-.742-.23 1.717 1.717 0 00-.879.195 1.323 1.323 0 00-.515.53c-.125.231-.203.49-.235.75-.039.29-.058.579-.058.872v4.121a.467.467 0 01-.133.328.448.448 0 01-.328.137H96.2a.446.446 0 01-.325-.137.464.464 0 01-.137-.328V11.93c0-.121.047-.239.133-.328a.453.453 0 01.32-.137zm0 0" fill="#399"/></g><path d="M23.837 8.47h8.033zm7.01-3v27.633" transform="scale(.57619 .57692)" fill="none" stroke-width="6" stroke="#fff"/><path d="M5.922 18.984h13.566c0 3.754-3.035 6.793-6.781 6.793a6.788 6.788 0 01-6.785-6.793zm3.394 0a3.392 3.392 0 003.391 3.399c1.871 0 3.39-1.52 3.39-3.399zm0 0" fill="#fff"/></svg>